<svg xmlns="http://www.w3.org/2000/svg" viewBox="0 0 24 24" width="24" height="24" fill="none" stroke="#2f56a6" stroke-width="2"  stroke-linecap="round" stroke-linejoin="round"><path d="m 5.81 2.67 c 2.51 1.88 5.21 5.70 6.20 7.75 c 0.99 -2.05 3.69 -5.87 6.20 -7.75 c 1.81 -1.36 4.74 -2.41 4.74 0.94 c 0.00 0.67 -0.38 5.61 -0.61 6.42 c -0.78 2.79 -3.63 3.50 -6.16 3.07 c 4.42 0.75 5.55 3.25 3.12 5.74 c -4.62 4.74 -6.63 -1.19 -7.15 -2.70 l 0.00 0.00 c -0.07 -0.21 -0.11 -0.34 -0.14 -0.34 s -0.07 0.13 -0.14 0.34 l 0.00 0.00 c -0.52 1.52 -2.54 7.44 -7.15 2.70 c -2.43 -2.49 -1.31 -4.99 3.12 -5.74 c -2.53 0.43 -5.38 -0.28 -6.16 -3.07 c -0.23 -0.80 -0.61 -5.75 -0.61 -6.42 c 0.00 -3.35 2.93 -2.30 4.74 -0.94 z"/></svg>
